<?xml version="1.0" encoding="utf-8"?>
<!-- Generator: $$$/GeneralStr/196=Adobe Illustrator 27.6.0, SVG Export Plug-In . SVG Version: 6.00 Build 0)  -->
<svg version="1.1" id="Capa_1" xmlns="http://www.w3.org/2000/svg" xmlns:xlink="http://www.w3.org/1999/xlink" x="0px" y="0px"
	 viewBox="0 0 701 739.8" style="enable-background:new 0 0 701 739.8;" xml:space="preserve">
<style type="text/css">
	.st0{fill:#FFFFFF;fill-opacity:0.2;}
</style>
<path class="st0" d="M213.1,245.5l68.7-118.9h137.4l68.7,118.9l-68.7,119H281.8L213.1,245.5z"/>
<path class="st0" d="M0,121.7l68.7-119l137.4,0l68.7,119L206,240.6H68.7L0,121.7z"/>
<path class="st0" d="M426.2,370l68.7-119h137.4l68.7,119l-68.7,118.9H494.9L426.2,370z"/>
<path class="st0" d="M0,617L68.7,498H206L274.7,617L206,735.9H68.7L0,617z"/>
<path class="st0" d="M426.2,617L494.9,498h137.4L700.9,617l-68.7,118.9H494.9L426.2,617z"/>
<path class="st0" d="M213.1,492.5l68.7-118.9h137.4l68.7,118.9l-68.7,118.9H281.8L213.1,492.5z"/>
</svg>
